<mxfile host="app.diagrams.net" modified="2022-06-20T06:22:30.160Z" agent="5.0 (Macintosh; Intel Mac OS X 10_15_7) AppleWebKit/537.36 (KHTML, like Gecko) Chrome/102.0.0.0 Safari/537.36" etag="N-8aUdZAgZM0VXoCIdtz" version="20.0.1" type="github">
  <diagram id="uqdI3uxe2mKfC2IrHBiJ" name="Page-1">
    <mxGraphModel dx="1573" dy="834" grid="1" gridSize="10" guides="1" tooltips="1" connect="1" arrows="1" fold="1" page="1" pageScale="1" pageWidth="850" pageHeight="1100" math="0" shadow="0">
      <root>
        <mxCell id="0" />
        <mxCell id="1" parent="0" />
        <mxCell id="PLW9pPy8reArhbwLxWtk-1" value="&lt;font style=&quot;font-size: 12px;&quot;&gt;메인 프로세스 실행&lt;/font&gt;" style="rounded=1;whiteSpace=wrap;html=1;fontSize=15;" vertex="1" parent="1">
          <mxGeometry x="160" y="20" width="120" height="30" as="geometry" />
        </mxCell>
        <mxCell id="PLW9pPy8reArhbwLxWtk-2" value="" style="endArrow=none;html=1;rounded=0;fontSize=15;" edge="1" parent="1">
          <mxGeometry width="50" height="50" relative="1" as="geometry">
            <mxPoint x="220" y="260" as="sourcePoint" />
            <mxPoint x="219.5" y="50" as="targetPoint" />
          </mxGeometry>
        </mxCell>
        <mxCell id="PLW9pPy8reArhbwLxWtk-4" value="" style="swimlane;startSize=0;fontSize=12;" vertex="1" parent="1">
          <mxGeometry x="105" y="150" width="230" height="50" as="geometry" />
        </mxCell>
        <mxCell id="PLW9pPy8reArhbwLxWtk-6" value="" style="endArrow=none;html=1;rounded=0;fontSize=12;entryX=0.5;entryY=0;entryDx=0;entryDy=0;" edge="1" parent="PLW9pPy8reArhbwLxWtk-4" target="PLW9pPy8reArhbwLxWtk-8">
          <mxGeometry width="50" height="50" relative="1" as="geometry">
            <mxPoint x="114.5" y="30" as="sourcePoint" />
            <mxPoint x="115" y="70" as="targetPoint" />
          </mxGeometry>
        </mxCell>
        <mxCell id="PLW9pPy8reArhbwLxWtk-7" value="end_eat 세마포어 wait을 통과 했는가" style="rounded=1;whiteSpace=wrap;html=1;fontSize=12;" vertex="1" parent="1">
          <mxGeometry x="142.5" y="120" width="155" height="50" as="geometry" />
        </mxCell>
        <mxCell id="PLW9pPy8reArhbwLxWtk-8" value="&lt;font style=&quot;font-size: 12px;&quot;&gt;메인 프로세스 종료&lt;/font&gt;" style="rounded=1;whiteSpace=wrap;html=1;fontSize=15;" vertex="1" parent="1">
          <mxGeometry x="160" y="290" width="120" height="30" as="geometry" />
        </mxCell>
        <mxCell id="PLW9pPy8reArhbwLxWtk-9" value="" style="endArrow=none;html=1;rounded=0;fontSize=12;" edge="1" parent="1">
          <mxGeometry width="50" height="50" relative="1" as="geometry">
            <mxPoint x="220" y="90" as="sourcePoint" />
            <mxPoint x="710" y="90" as="targetPoint" />
          </mxGeometry>
        </mxCell>
        <mxCell id="PLW9pPy8reArhbwLxWtk-23" value="&lt;font style=&quot;font-size: 12px;&quot;&gt;모든 자식 프로세스 강제 종료&lt;/font&gt;" style="rounded=1;whiteSpace=wrap;html=1;fontSize=15;" vertex="1" parent="1">
          <mxGeometry x="160" y="220" width="120" height="40" as="geometry" />
        </mxCell>
        <mxCell id="PLW9pPy8reArhbwLxWtk-26" value="" style="group" vertex="1" connectable="0" parent="1">
          <mxGeometry x="310" y="70" width="320" height="550" as="geometry" />
        </mxCell>
        <mxCell id="PLW9pPy8reArhbwLxWtk-25" value="" style="group" vertex="1" connectable="0" parent="PLW9pPy8reArhbwLxWtk-26">
          <mxGeometry x="50" width="270" height="550" as="geometry" />
        </mxCell>
        <mxCell id="PLW9pPy8reArhbwLxWtk-10" value="" style="edgeStyle=orthogonalEdgeStyle;rounded=0;html=1;jettySize=auto;orthogonalLoop=1;fontSize=11;endArrow=none;endFill=0;endSize=8;strokeWidth=1;shadow=0;labelBackgroundColor=none;" edge="1" parent="PLW9pPy8reArhbwLxWtk-25" source="PLW9pPy8reArhbwLxWtk-13">
          <mxGeometry y="10" relative="1" as="geometry">
            <mxPoint as="offset" />
            <mxPoint x="-260" y="60" as="sourcePoint" />
            <mxPoint y="380" as="targetPoint" />
            <Array as="points">
              <mxPoint x="220" y="130" />
              <mxPoint x="220" y="380" />
            </Array>
          </mxGeometry>
        </mxCell>
        <mxCell id="PLW9pPy8reArhbwLxWtk-11" value="철학자 프로세스 실행" style="rounded=1;whiteSpace=wrap;html=1;fontSize=12;glass=0;strokeWidth=1;shadow=0;" vertex="1" parent="PLW9pPy8reArhbwLxWtk-25">
          <mxGeometry x="50" width="120" height="40" as="geometry" />
        </mxCell>
        <mxCell id="PLW9pPy8reArhbwLxWtk-12" value="sleeping, thinking" style="rhombus;whiteSpace=wrap;html=1;shadow=0;fontFamily=Helvetica;fontSize=12;align=center;strokeWidth=1;spacing=6;spacingTop=-4;" vertex="1" parent="PLW9pPy8reArhbwLxWtk-25">
          <mxGeometry x="170" y="170" width="100" height="80" as="geometry" />
        </mxCell>
        <mxCell id="PLW9pPy8reArhbwLxWtk-13" value="print 세마포어" style="rhombus;whiteSpace=wrap;html=1;shadow=0;fontFamily=Helvetica;fontSize=12;align=center;strokeWidth=1;spacing=6;spacingTop=-4;" vertex="1" parent="PLW9pPy8reArhbwLxWtk-25">
          <mxGeometry x="60" y="90" width="100" height="80" as="geometry" />
        </mxCell>
        <mxCell id="PLW9pPy8reArhbwLxWtk-16" value="fork_mutex_unlock" style="rhombus;whiteSpace=wrap;html=1;shadow=0;fontFamily=Helvetica;fontSize=12;align=center;strokeWidth=1;spacing=6;spacingTop=-4;" vertex="1" parent="PLW9pPy8reArhbwLxWtk-25">
          <mxGeometry x="170" y="280" width="100" height="80" as="geometry" />
        </mxCell>
        <mxCell id="PLW9pPy8reArhbwLxWtk-19" value="" style="endArrow=classic;html=1;rounded=0;fontSize=15;entryX=0.5;entryY=0;entryDx=0;entryDy=0;" edge="1" parent="PLW9pPy8reArhbwLxWtk-25" target="PLW9pPy8reArhbwLxWtk-21">
          <mxGeometry width="50" height="50" relative="1" as="geometry">
            <mxPoint x="109.5" y="170" as="sourcePoint" />
            <mxPoint x="110" y="530" as="targetPoint" />
          </mxGeometry>
        </mxCell>
        <mxCell id="PLW9pPy8reArhbwLxWtk-21" value="대기" style="rounded=1;whiteSpace=wrap;html=1;fontSize=15;" vertex="1" parent="PLW9pPy8reArhbwLxWtk-25">
          <mxGeometry x="65" y="420" width="90" height="30" as="geometry" />
        </mxCell>
        <mxCell id="PLW9pPy8reArhbwLxWtk-22" value="" style="rounded=0;html=1;jettySize=auto;orthogonalLoop=1;fontSize=11;endArrow=block;endFill=0;endSize=8;strokeWidth=1;shadow=0;labelBackgroundColor=none;edgeStyle=orthogonalEdgeStyle;" edge="1" parent="PLW9pPy8reArhbwLxWtk-25" source="PLW9pPy8reArhbwLxWtk-11" target="PLW9pPy8reArhbwLxWtk-13">
          <mxGeometry relative="1" as="geometry" />
        </mxCell>
        <mxCell id="PLW9pPy8reArhbwLxWtk-14" value="" style="rounded=0;html=1;jettySize=auto;orthogonalLoop=1;fontSize=11;endArrow=block;endFill=0;endSize=8;strokeWidth=1;shadow=0;labelBackgroundColor=none;edgeStyle=orthogonalEdgeStyle;" edge="1" parent="PLW9pPy8reArhbwLxWtk-25" source="PLW9pPy8reArhbwLxWtk-13">
          <mxGeometry y="20" relative="1" as="geometry">
            <mxPoint as="offset" />
            <mxPoint y="380" as="targetPoint" />
          </mxGeometry>
        </mxCell>
        <mxCell id="PLW9pPy8reArhbwLxWtk-18" value="" style="rounded=0;html=1;jettySize=auto;orthogonalLoop=1;fontSize=11;endArrow=none;endFill=0;endSize=8;strokeWidth=1;shadow=0;labelBackgroundColor=none;edgeStyle=orthogonalEdgeStyle;entryX=0.5;entryY=0;entryDx=0;entryDy=0;" edge="1" parent="PLW9pPy8reArhbwLxWtk-26" source="PLW9pPy8reArhbwLxWtk-17" target="PLW9pPy8reArhbwLxWtk-15">
          <mxGeometry x="0.3333" y="20" relative="1" as="geometry">
            <mxPoint as="offset" />
            <mxPoint x="50" y="170" as="sourcePoint" />
            <mxPoint x="110" y="430" as="targetPoint" />
          </mxGeometry>
        </mxCell>
        <mxCell id="PLW9pPy8reArhbwLxWtk-15" value="eating" style="rhombus;whiteSpace=wrap;html=1;shadow=0;fontFamily=Helvetica;fontSize=12;align=center;strokeWidth=1;spacing=6;spacingTop=-4;" vertex="1" parent="PLW9pPy8reArhbwLxWtk-26">
          <mxGeometry y="280" width="100" height="80" as="geometry" />
        </mxCell>
        <mxCell id="PLW9pPy8reArhbwLxWtk-17" value="fork_mutex_lock" style="rhombus;whiteSpace=wrap;html=1;shadow=0;fontFamily=Helvetica;fontSize=12;align=center;strokeWidth=1;spacing=6;spacingTop=-4;" vertex="1" parent="PLW9pPy8reArhbwLxWtk-26">
          <mxGeometry y="170" width="100" height="80" as="geometry" />
        </mxCell>
        <mxCell id="PLW9pPy8reArhbwLxWtk-41" value="" style="group" vertex="1" connectable="0" parent="1">
          <mxGeometry x="670" y="80" width="250" height="300" as="geometry" />
        </mxCell>
        <mxCell id="PLW9pPy8reArhbwLxWtk-28" value="모니터링 스레드 실행" style="rounded=1;whiteSpace=wrap;html=1;" vertex="1" parent="PLW9pPy8reArhbwLxWtk-41">
          <mxGeometry x="40" width="110" height="30" as="geometry" />
        </mxCell>
        <mxCell id="PLW9pPy8reArhbwLxWtk-31" value="" style="swimlane;startSize=0;fontSize=12;" vertex="1" parent="PLW9pPy8reArhbwLxWtk-41">
          <mxGeometry y="80" width="190" height="100" as="geometry" />
        </mxCell>
        <mxCell id="PLW9pPy8reArhbwLxWtk-33" value="" style="endArrow=none;html=1;rounded=0;fontSize=12;" edge="1" parent="PLW9pPy8reArhbwLxWtk-31">
          <mxGeometry width="50" height="50" relative="1" as="geometry">
            <mxPoint x="94.5" y="-50" as="sourcePoint" />
            <mxPoint x="95" y="200" as="targetPoint" />
          </mxGeometry>
        </mxCell>
        <mxCell id="PLW9pPy8reArhbwLxWtk-36" value="end_philo" style="rounded=1;whiteSpace=wrap;html=1;fontSize=12;" vertex="1" parent="PLW9pPy8reArhbwLxWtk-31">
          <mxGeometry x="-50" y="40" width="100" height="30" as="geometry" />
        </mxCell>
        <mxCell id="PLW9pPy8reArhbwLxWtk-34" value="죽거나 먹는 횟수를 채웠는가" style="rounded=1;whiteSpace=wrap;html=1;fontSize=12;" vertex="1" parent="PLW9pPy8reArhbwLxWtk-41">
          <mxGeometry x="20" y="60" width="150" height="30" as="geometry" />
        </mxCell>
        <mxCell id="PLW9pPy8reArhbwLxWtk-35" value="&lt;font style=&quot;font-size: 12px;&quot;&gt;print 세마포어 wait&lt;br&gt;end_eat 세마포어 post&lt;br&gt;&lt;/font&gt;" style="rounded=1;whiteSpace=wrap;html=1;fontSize=15;" vertex="1" parent="PLW9pPy8reArhbwLxWtk-41">
          <mxGeometry x="35" y="200" width="120" height="50" as="geometry" />
        </mxCell>
        <mxCell id="PLW9pPy8reArhbwLxWtk-32" value="check_death" style="rounded=1;whiteSpace=wrap;html=1;fontSize=12;" vertex="1" parent="PLW9pPy8reArhbwLxWtk-41">
          <mxGeometry x="130" y="120" width="120" height="30" as="geometry" />
        </mxCell>
        <mxCell id="PLW9pPy8reArhbwLxWtk-40" value="&lt;span style=&quot;font-size: 12px;&quot;&gt;모니터링 스레드 종료&lt;/span&gt;" style="rounded=1;whiteSpace=wrap;html=1;fontSize=15;" vertex="1" parent="PLW9pPy8reArhbwLxWtk-41">
          <mxGeometry x="35" y="270" width="120" height="30" as="geometry" />
        </mxCell>
      </root>
    </mxGraphModel>
  </diagram>
</mxfile>
